<svg xmlns="http://www.w3.org/2000/svg" viewBox="0 0 512 512">
  <defs>
    <linearGradient id="grad" x1="0%" y1="0%" x2="100%" y2="100%">
      <stop offset="0%" style="stop-color:#8b5cf6;stop-opacity:1" />
      <stop offset="100%" style="stop-color:#6366f1;stop-opacity:1" />
    </linearGradient>
  </defs>
  <rect width="512" height="512" rx="80" fill="#111827"/>
  <g transform="translate(256, 256)">
    <!-- Flame icon -->
    <path d="M0,-120 C40,-80 60,-40 60,20 C60,80 30,120 0,140 C-30,120 -60,80 -60,20 C-60,-40 -40,-80 0,-120 Z" fill="url(#grad)"/>
    <!-- Inner flame -->
    <path d="M0,-60 C20,-40 30,-20 30,20 C30,50 15,70 0,80 C-15,70 -30,50 -30,20 C-30,-20 -20,-40 0,-60 Z" fill="#f59e0b"/>
    <!-- Heart outline at bottom -->
    <path d="M0,100 L-30,70 A25,25 0 0,1 0,45 A25,25 0 0,1 30,70 Z" fill="none" stroke="white" stroke-width="6"/>
  </g>
</svg>
